<svg id="visual" viewBox="0 0 900 600" width="900" height="600" xmlns="http://www.w3.org/2000/svg" xmlns:xlink="http://www.w3.org/1999/xlink" version="1.1"><rect x="0" y="0" width="900" height="600" fill="#141415"></rect><path d="M0 214L21.5 206.7C43 199.3 86 184.7 128.8 183.7C171.7 182.7 214.3 195.3 257.2 183.5C300 171.7 343 135.3 385.8 123C428.7 110.7 471.3 122.3 514.2 121.7C557 121 600 108 642.8 116.8C685.7 125.7 728.3 156.3 771.2 164.7C814 173 857 159 878.5 152L900 145L900 601L878.5 601C857 601 814 601 771.2 601C728.3 601 685.7 601 642.8 601C600 601 557 601 514.2 601C471.3 601 428.7 601 385.8 601C343 601 300 601 257.2 601C214.3 601 171.7 601 128.8 601C86 601 43 601 21.5 601L0 601Z" fill="#1e1e1f"></path><path d="M0 137L21.5 155.8C43 174.7 86 212.3 128.8 224.5C171.7 236.7 214.3 223.3 257.2 205.8C300 188.3 343 166.7 385.8 173.5C428.7 180.3 471.3 215.7 514.2 227.3C557 239 600 227 642.8 222.8C685.7 218.7 728.3 222.3 771.2 229.3C814 236.3 857 246.7 878.5 251.8L900 257L900 601L878.5 601C857 601 814 601 771.2 601C728.3 601 685.7 601 642.8 601C600 601 557 601 514.2 601C471.3 601 428.7 601 385.8 601C343 601 300 601 257.2 601C214.3 601 171.7 601 128.8 601C86 601 43 601 21.5 601L0 601Z" fill="#1d1d1e"></path><path d="M0 227L21.5 221.2C43 215.3 86 203.7 128.8 208.3C171.7 213 214.3 234 257.2 247.7C300 261.3 343 267.7 385.8 257.5C428.7 247.3 471.3 220.7 514.2 217.2C557 213.7 600 233.3 642.8 254.3C685.7 275.3 728.3 297.7 771.2 308.2C814 318.7 857 317.3 878.5 316.7L900 316L900 601L878.5 601C857 601 814 601 771.2 601C728.3 601 685.7 601 642.8 601C600 601 557 601 514.2 601C471.3 601 428.7 601 385.8 601C343 601 300 601 257.2 601C214.3 601 171.7 601 128.8 601C86 601 43 601 21.5 601L0 601Z" fill="#1c1c1d"></path><path d="M0 331L21.5 328.5C43 326 86 321 128.8 308.8C171.7 296.7 214.3 277.3 257.2 276C300 274.7 343 291.3 385.8 302.5C428.7 313.7 471.3 319.3 514.2 326C557 332.7 600 340.3 642.8 343.2C685.7 346 728.3 344 771.2 343.5C814 343 857 344 878.5 344.5L900 345L900 601L878.5 601C857 601 814 601 771.2 601C728.3 601 685.7 601 642.8 601C600 601 557 601 514.2 601C471.3 601 428.7 601 385.8 601C343 601 300 601 257.2 601C214.3 601 171.7 601 128.8 601C86 601 43 601 21.5 601L0 601Z" fill="#1b1b1c"></path><path d="M0 351L21.5 339C43 327 86 303 128.8 297.8C171.7 292.7 214.3 306.3 257.2 316C300 325.7 343 331.3 385.8 332.3C428.7 333.3 471.3 329.7 514.2 329.8C557 330 600 334 642.8 329.2C685.7 324.3 728.3 310.7 771.2 310.7C814 310.7 857 324.3 878.5 331.2L900 338L900 601L878.5 601C857 601 814 601 771.2 601C728.3 601 685.7 601 642.8 601C600 601 557 601 514.2 601C471.3 601 428.7 601 385.8 601C343 601 300 601 257.2 601C214.3 601 171.7 601 128.8 601C86 601 43 601 21.5 601L0 601Z" fill="#1a1a1b"></path><path d="M0 395L21.5 387.8C43 380.7 86 366.3 128.8 356.7C171.7 347 214.3 342 257.2 352C300 362 343 387 385.8 389.8C428.7 392.7 471.3 373.3 514.2 365.8C557 358.3 600 362.7 642.8 371C685.7 379.3 728.3 391.7 771.2 391.3C814 391 857 378 878.5 371.5L900 365L900 601L878.5 601C857 601 814 601 771.2 601C728.3 601 685.7 601 642.8 601C600 601 557 601 514.2 601C471.3 601 428.7 601 385.8 601C343 601 300 601 257.2 601C214.3 601 171.7 601 128.8 601C86 601 43 601 21.5 601L0 601Z" fill="#181819"></path><path d="M0 438L21.5 438.3C43 438.7 86 439.3 128.8 434C171.7 428.7 214.3 417.3 257.2 417.2C300 417 343 428 385.8 425C428.7 422 471.3 405 514.2 400.2C557 395.3 600 402.7 642.8 413.3C685.7 424 728.3 438 771.2 437.5C814 437 857 422 878.5 414.5L900 407L900 601L878.5 601C857 601 814 601 771.2 601C728.3 601 685.7 601 642.8 601C600 601 557 601 514.2 601C471.3 601 428.7 601 385.8 601C343 601 300 601 257.2 601C214.3 601 171.7 601 128.8 601C86 601 43 601 21.5 601L0 601Z" fill="#171718"></path><path d="M0 494L21.5 487.8C43 481.7 86 469.3 128.8 458C171.7 446.7 214.3 436.3 257.2 438.8C300 441.3 343 456.7 385.8 467.3C428.7 478 471.3 484 514.2 479.2C557 474.3 600 458.7 642.8 447.8C685.7 437 728.3 431 771.2 432.8C814 434.7 857 444.3 878.5 449.2L900 454L900 601L878.5 601C857 601 814 601 771.2 601C728.3 601 685.7 601 642.8 601C600 601 557 601 514.2 601C471.3 601 428.7 601 385.8 601C343 601 300 601 257.2 601C214.3 601 171.7 601 128.8 601C86 601 43 601 21.5 601L0 601Z" fill="#161617"></path><path d="M0 499L21.5 498.3C43 497.7 86 496.3 128.8 497.8C171.7 499.3 214.3 503.7 257.2 510.7C300 517.7 343 527.3 385.8 530.2C428.7 533 471.3 529 514.2 519.7C557 510.3 600 495.7 642.8 488.5C685.7 481.3 728.3 481.7 771.2 481.7C814 481.7 857 481.3 878.5 481.2L900 481L900 601L878.5 601C857 601 814 601 771.2 601C728.3 601 685.7 601 642.8 601C600 601 557 601 514.2 601C471.3 601 428.7 601 385.8 601C343 601 300 601 257.2 601C214.3 601 171.7 601 128.8 601C86 601 43 601 21.5 601L0 601Z" fill="#151516"></path><path d="M0 534L21.5 531.7C43 529.3 86 524.7 128.8 524.3C171.7 524 214.3 528 257.2 534.5C300 541 343 550 385.8 555.2C428.7 560.3 471.3 561.7 514.2 562.7C557 563.7 600 564.3 642.8 564.2C685.7 564 728.3 563 771.2 563.3C814 563.7 857 565.3 878.5 566.2L900 567L900 601L878.5 601C857 601 814 601 771.2 601C728.3 601 685.7 601 642.8 601C600 601 557 601 514.2 601C471.3 601 428.7 601 385.8 601C343 601 300 601 257.2 601C214.3 601 171.7 601 128.8 601C86 601 43 601 21.5 601L0 601Z" fill="#141415"></path></svg>