<?xml version="1.0" encoding="iso-8859-1"?>
<!-- Generator: Adobe Illustrator 19.0.0, SVG Export Plug-In . SVG Version: 6.00 Build 0)  -->
<svg version="1.1" id="Layer_1" xmlns="http://www.w3.org/2000/svg" xmlns:xlink="http://www.w3.org/1999/xlink" x="0px" y="0px"
	 viewBox="0 0 512.001 512.001" style="enable-background:new 0 0 512.001 512.001;" xml:space="preserve">
<path style="fill:#EC5565;" d="M0.001,256.006c0,141.395,114.606,255.998,255.996,255.994
	c141.398,0.004,256.004-114.598,256.004-255.994C512.009,114.61,397.395,0,255.996,0C114.606,0,0.001,114.614,0.001,256.006z"/>
<path style="fill:#D94453;" d="M509.453,291.75c-0.467-0.5-189.294-189.297-189.792-189.79
	c-10.067-10.796-27.341-20.256-58.674-24.415c-66.106-8.757-153.335,61.424-163.741,79.662c-3.486,6.111-1.553,10.135-0.095,11.995
	c0.377,0.482,0.857,0.797,1.297,1.178c0.064,0.087,0.124,0.226,0.185,0.306c0.378,0.483,64.599,64.533,65.026,64.908
	c-10.594,23.28-19.677,45.981-22.786,53.893c-0.161,0.401-0.277,0.816-0.365,1.239l-7.139,34.854
	c-32.148,10.869-49.102,25.474-49.102,42.37c0,9.005,5.085,17.728,14.126,25.747c0.521,0.492,113.627,113.689,114.173,114.175
	c0.164,0.156,0.319,0.313,0.47,0.47c13.975,2.362,28.313,3.658,42.96,3.658C385.256,512.002,492.065,416.217,509.453,291.75z"/>
<path style="fill:#F4F6F9;" d="M386.019,328.246l-6.475-37.305c-0.116-0.663-0.321-1.312-0.612-1.918
	c-0.285-0.612-28.823-61.075-31.368-85.276c-0.853-8.145-0.977-15.211-1.087-21.438c-0.234-13.373-0.437-24.93-7.948-37.436
	c-1.561-2.589-2.574-6.613-3.741-11.266c-4.777-19.06-12.002-47.862-73.799-56.066c-66.107-8.757-153.337,61.425-163.742,79.662
	c-3.486,6.111-1.553,10.135-0.095,11.995c2.661,3.412,6.934,4.288,12.666,2.64l7.467-2.158
	c83.643-24.333,101.07-21.489,103.972-17.661c3.34,6.781,3.26,7.78-9.873,15.268c-3.558,2.027-7.59,4.332-11.717,7.182
	c-17.756,12.287-52.092,97.964-58.793,115.011c-0.16,0.401-0.277,0.817-0.365,1.239l-7.138,34.854
	c-32.149,10.875-49.103,25.48-49.103,42.374c0,35.831,80.252,67.259,171.733,67.259s171.733-31.427,171.733-67.259
	C427.734,352.484,413.333,338.805,386.019,328.246z M155.003,294.348c1.023-2.596,2.093-5.274,3.198-8.009
	c10.658,4.945,51.506,22.09,105.607,22.09c29.7,0,63.379-5.217,98.206-20.421c1.357,2.981,2.427,5.284,2.988,6.48l5.582,32.156
	c-107.436,40.606-207.442,3.686-221.771-2.062L155.003,294.348z M208.167,186.752c3.587-2.486,7.161-4.521,10.609-6.49
	c11.485-6.548,25.783-14.692,15.882-34.832c-8.837-17.974-48.621-10.996-114.406,7.853c25.141-23.223,90.556-67.302,138.768-60.937
	c51.749,6.868,57.036,27.956,61.286,44.895c1.393,5.571,2.713,10.828,5.418,15.327c5.454,9.078,5.6,17.405,5.819,30.005
	c0.116,6.533,0.247,13.941,1.174,22.735c1.794,17.121,14.222,48.227,23.243,69.055c-92.918,40.493-179.498,3.904-192.05-1.861
	C179.626,235.024,199.654,192.645,208.167,186.752z M256.001,420.275c-90.956,0-156.8-31.252-156.8-52.325
	c0-9.851,16.421-21.161,42.861-29.502c0.195-0.062,0.357-0.18,0.545-0.257c9.413,3.936,57.334,22.511,121.788,22.511
	c33.822,0,72.188-5.18,111.868-20.246c0.21,0.098,0.393,0.239,0.613,0.318c22.495,8.071,35.926,18.229,35.926,27.177
	C412.801,389.023,346.956,420.275,256.001,420.275z"/>
<g>
</g>
<g>
</g>
<g>
</g>
<g>
</g>
<g>
</g>
<g>
</g>
<g>
</g>
<g>
</g>
<g>
</g>
<g>
</g>
<g>
</g>
<g>
</g>
<g>
</g>
<g>
</g>
<g>
</g>
</svg>
